<svg id="Layer_1" data-name="Layer 1" xmlns="http://www.w3.org/2000/svg" viewBox="0 0 600 599"><defs><style>.cls-1{fill:#fff;}</style></defs><title>lookbook_logo</title><g id="logo_ORIG" data-name="logo ORIG"><polygon class="cls-1" points="545.39 54.61 545.39 0 519 0 519 54.61 519 81 545.39 81 600 81 600 54.61 545.39 54.61"/><polygon class="cls-1" points="54.61 518 0 518 0 544.39 54.61 544.39 54.61 599 81 599 81 544.39 81 518 54.61 518"/><path class="cls-1" d="M497,476H454.78C424.41,476,413,456.55,413,430.84c0-20.1,8-30.9,21.54-36.95C421.61,388.71,416,374.66,416,361.26c0-26.58,12.71-41.27,41.36-41.27H497V476Zm-26.71-70h-8.62c-15.94,0-22,8-22,24,0,15.77,5.17,24,19.39,24h11.2V406Zm0-64H460.16c-11.84,0-17.44,7.56-17.44,22,0,13,7.75,19.87,17.87,19.87h9.7V342Z"/><path class="cls-1" d="M313,358.89c0-21.44,12.47-38.89,39.5-38.89S392,337.45,392,358.89v78.21c0,21.44-12.47,38.89-39.5,38.89S313,458.55,313,437.11V358.89Zm25.78,77.58c0,11.35,3.33,16.82,13.72,16.82s13.72-5.46,13.72-16.82V359.52c0-11.35-3.32-16.82-13.72-16.82s-13.72,5.47-13.72,16.82v76.95Z"/><path class="cls-1" d="M207,358.89c0-21.44,12.63-38.89,40-38.89s40,17.45,40,38.89v78.21c0,21.44-12.63,38.89-40,38.89s-40-17.45-40-38.89V358.89Zm26.1,77.58c0,11.35,3.37,16.82,13.89,16.82s13.89-5.46,13.89-16.82V359.52c0-11.35-3.36-16.82-13.89-16.82s-13.89,5.47-13.89,16.82v76.95Z"/><polygon class="cls-1" points="156.14 320 156.14 377.69 155.7 377.69 127.54 320 100.68 320 129.71 378.12 97 476 124.3 476 146.17 403.4 146.61 403.4 156.14 420.68 156.14 476 183 476 183 320 156.14 320"/><polygon class="cls-1" points="443.86 124 443.86 181.69 444.3 181.69 472.46 124 499.32 124 470.29 182.12 503 280 475.7 280 453.83 207.4 453.39 207.4 443.86 224.68 443.86 280 417 280 417 124 443.86 124"/><path class="cls-1" d="M312,162.89c0-21.44,12.63-38.89,40-38.89s40,17.45,40,38.89V241.1c0,21.44-12.63,38.89-40,38.89s-40-17.45-40-38.89V162.89Zm26.1,77.58c0,11.35,3.37,16.81,13.89,16.81s13.89-5.46,13.89-16.81V163.52c0-11.35-3.36-16.82-13.89-16.82s-13.89,5.47-13.89,16.82v76.95Z"/><path class="cls-1" d="M207,162.89c0-21.44,12.63-38.89,40-38.89s40,17.45,40,38.89V241.1c0,21.44-12.63,38.89-40,38.89s-40-17.45-40-38.89V162.89Zm26.1,77.58c0,11.35,3.37,16.81,13.89,16.81s13.89-5.46,13.89-16.81V163.52c0-11.35-3.36-16.82-13.89-16.82s-13.89,5.47-13.89,16.82v76.95Z"/><polygon class="cls-1" points="110 124 110 279 182 279 182 255.81 136.63 255.81 136.63 124 110 124"/></g></svg>